<svg width="192" height="32" viewBox="0 0 192 32" fill="none" xmlns="http://www.w3.org/2000/svg">
<g clip-path="url(#clip0_5646_7796)">
<mask id="mask0_5646_7796" style="mask-type:luminance" maskUnits="userSpaceOnUse" x="0" y="0" width="192" height="32">
<path d="M191.494 0H0V31.9456H191.494V0Z" fill="white"/>
</mask>
<g mask="url(#mask0_5646_7796)">
<path d="M33.994 30.6754L46.0485 18.1393C46.0485 18.1393 48.2076 16.1302 46.2794 13.8819C45.6625 13.1842 33.7334 0.892251 33.7334 0.892251C33.7334 0.892251 31.9932 -1.08713 29.8522 1.07205C29.585 1.33927 16.9301 14.3883 16.9301 14.3883C16.5382 14.7828 16.3085 15.31 16.2868 15.8657C16.2652 16.4214 16.4529 16.965 16.813 17.3888C16.8938 17.4944 18.2645 18.8288 19.7689 17.27C19.8843 17.1496 25.9033 11.2015 26.1128 11.0019C31.8579 5.35411 38.7627 13.877 33.6757 18.5302C33.4233 18.7645 27.3004 25.0704 27.3004 25.0704C27.3004 25.0704 25.6229 26.39 27.533 28.3694C27.8217 28.6696 30.4889 31.3698 30.4889 31.3698C30.4889 31.3698 31.8794 32.7488 33.4448 31.2511C33.4876 31.2049 33.994 30.6754 33.994 30.6754Z" fill="url(#paint0_linear_5646_7796)"/>
<path d="M13.0837 1.26869L1.03092 13.8048C1.03092 13.8048 -1.12825 15.8138 0.799993 18.0621C1.39876 18.7599 13.346 31.0518 13.346 31.0518C13.346 31.0518 15.0829 33.0312 17.2272 30.872C17.4928 30.6048 30.1493 17.5557 30.1493 17.5557C30.5423 17.1618 30.7726 16.6343 30.7944 16.0784C30.816 15.5224 30.6276 14.9786 30.2664 14.5553C30.1856 14.4497 28.8165 13.1153 27.3105 14.6741C27.1934 14.7945 21.1728 20.7425 20.9633 20.9421C15.2214 26.59 8.31339 18.0671 13.4004 13.4138C13.6544 13.1796 19.7757 6.87366 19.7757 6.87366C19.7757 6.87366 21.4565 5.55407 19.5447 3.57469C19.2544 3.27448 16.5889 0.574263 16.5889 0.574263C16.5889 0.574263 15.2 -0.804706 13.6363 0.693026L13.0837 1.26869Z" fill="url(#paint1_linear_5646_7796)"/>
<path d="M62.2073 17.3261C62.2073 16.4832 61.6976 15.9207 60.6238 15.6139C59.6011 15.3071 58.425 15.0003 57.1731 14.6687C53.7735 13.7994 52.0877 12.2143 52.0877 9.91492C52.1636 6.25966 54.3359 4.4716 58.6296 4.49635C62.7186 4.49635 64.8399 6.28604 65.0444 9.89016H63.0518C62.3096 9.89016 61.7982 9.53222 61.4667 8.86748C60.8795 7.87779 59.8304 7.38295 58.3227 7.38295C56.4836 7.40934 55.5632 8.09884 55.4873 9.42832C55.4873 10.5269 56.5858 11.3186 58.8605 11.83C60.2611 12.156 61.643 12.5569 63.0007 13.0308C64.9416 13.6906 65.8614 15.1201 65.7603 17.3195C65.5607 20.7257 63.2514 22.4048 58.8605 22.4048C54.2601 22.4048 51.9326 20.4881 51.832 16.7059H55.2827C55.4098 18.5467 56.5858 19.4671 58.8605 19.4671C61.1351 19.4671 62.2337 18.7578 62.2073 17.3261Z" fill="#131131"/>
<path d="M74.8056 22.4628C70.7166 22.3358 68.6729 19.9589 68.6729 15.3585C68.6729 10.7581 70.743 8.45871 74.8568 8.43066C79.1454 8.43066 81.1693 11.0698 80.9137 16.3482H72.1714C72.3001 18.4183 73.1941 19.4674 74.8551 19.4674C75.6485 19.4674 76.3891 19.1375 77.0539 18.4958C77.1994 18.3357 77.3782 18.2093 77.5776 18.1257C77.777 18.0419 77.9924 18.0026 78.2085 18.0109H80.7124C79.9685 20.8793 78.1293 22.4628 74.8056 22.4628ZM72.2242 13.9284H77.3112C77.1067 12.1387 76.2621 11.2183 74.8056 11.2183C73.3491 11.2183 72.4881 12.1387 72.2242 13.9284Z" fill="#131131"/>
<path d="M89.9617 22.4632C85.8726 22.4632 83.7761 20.1127 83.6738 15.4611C83.6738 10.8425 85.7439 8.51014 89.9105 8.43262C93.1815 8.43262 95.1229 9.89078 95.7118 12.8285H92.0054C91.5963 11.9097 90.8804 11.4231 89.8083 11.4231C88.0186 11.4231 87.1246 12.7774 87.1246 15.4611C87.1246 18.1448 88.0697 19.4991 89.9617 19.4743C90.3529 19.473 90.7389 19.3853 91.0922 19.2172C91.4455 19.0493 91.7575 18.8053 92.0054 18.5028C92.1543 18.3471 92.3336 18.2235 92.5322 18.1402C92.7308 18.0568 92.9446 18.015 93.16 18.0178H95.7167C95.0982 20.7774 93.1072 22.5407 89.9617 22.4632Z" fill="#131131"/>
<path d="M98.7773 15.1802C98.8796 10.8091 101.204 8.63672 105.728 8.63672H106.213V12.1633H105.059C103.167 12.1633 102.221 13.1612 102.221 15.1324V22.1576H98.7773V15.1802Z" fill="#131131"/>
<path d="M115.108 22.4628C111.019 22.3358 108.974 19.9589 108.974 15.3585C108.974 10.7581 111.044 8.45871 115.159 8.43066C119.448 8.43066 121.472 11.0698 121.216 16.3482H112.474C112.601 18.4183 113.497 19.4674 115.158 19.4674C115.949 19.4674 116.69 19.1375 117.355 18.4958C117.5 18.3357 117.679 18.2093 117.878 18.1257C118.078 18.0419 118.293 18.0026 118.509 18.0109H121.015C120.271 20.8793 118.43 22.4628 115.108 22.4628ZM112.527 13.9284H117.612C117.407 12.1387 116.565 11.2183 115.108 11.2183C113.652 11.2183 112.782 12.1387 112.527 13.9284Z" fill="#131131"/>
<path d="M127.833 11.0645H127.475V18.5532C127.475 19.1157 127.805 19.4225 128.465 19.4225H129.512V22.0039C128.322 22.11 127.124 22.1013 125.935 21.9775C124.656 21.8505 124.043 21.0571 124.069 19.5495V4.77832H125.832C126.726 4.77832 127.467 5.60306 127.467 6.49049V8.63482H129.512V9.37378C129.518 9.59637 129.478 9.81778 129.396 10.0247C129.314 10.2316 129.191 10.4197 129.034 10.5777C128.877 10.7356 128.69 10.8602 128.483 10.9439C128.277 11.0276 128.056 11.0686 127.833 11.0645Z" fill="#131131"/>
<path d="M138.138 19.7036C139.569 19.7036 140.282 19.2945 140.282 18.4253C140.282 17.7358 139.106 17.1733 136.78 16.7642C133.79 16.2281 132.257 14.8986 132.231 12.7774C132.231 9.86439 134.53 8.4887 137.623 8.43262C139.362 8.43262 140.742 8.81751 141.763 9.58726C142.76 10.379 143.296 11.4787 143.373 12.8862H141.229C140.437 12.8615 139.926 12.5794 139.721 12.0433C139.49 11.4561 138.801 11.1229 137.676 11.1229C136.356 11.1229 135.683 11.4809 135.683 12.1704C135.683 12.8599 136.551 13.3976 138.322 13.7308C140.622 14.191 142.129 14.7782 142.87 15.4677C143.179 15.7859 143.421 16.1621 143.584 16.5745C143.746 16.9871 143.826 17.4277 143.817 17.871C143.817 21.1931 141.209 22.4187 137.631 22.4187C135.741 22.4187 134.309 22.0112 133.389 21.2178C132.368 20.4508 131.856 19.2764 131.856 17.7176H135.332C135.398 19.1923 136.472 19.7036 138.138 19.7036Z" fill="#131131"/>
<path d="M149.964 25.7601C149.964 26.8851 149.402 27.4476 148.279 27.4476H146.566V14.5156C146.745 10.4776 148.839 8.4834 152.904 8.4834C157.096 8.4834 159.191 10.758 159.19 15.3073C159.19 19.9078 157.402 22.2847 153.798 22.4117C152.112 22.4117 150.829 21.7222 149.964 20.3168V25.7601ZM152.853 19.3717C154.693 19.3717 155.639 18.0686 155.714 15.4607C155.714 12.7259 154.745 11.3716 152.801 11.3716C150.858 11.3716 149.94 12.7259 149.964 15.4607C150.067 18.0686 151.012 19.3717 152.853 19.3717Z" fill="#131131"/>
<path d="M163.817 4.77832C164.941 4.77832 165.478 5.34079 165.452 6.43935V7.42904H162.056V4.77832H163.817ZM163.817 8.63646C164.916 8.63646 165.452 9.1742 165.452 10.2728V22.1491H162.056V8.62327L163.817 8.63646Z" fill="#131131"/>
<path d="M168.653 15.1802C168.756 10.8091 171.081 8.63672 175.604 8.63672H176.076V12.1633H174.921C173.031 12.1633 172.084 13.1612 172.084 15.1324V22.1576H168.653V15.1802Z" fill="#131131"/>
<path d="M181.219 4.77832C182.344 4.77832 182.88 5.34079 182.856 6.43935V7.42904H179.456V4.77832H181.219ZM181.219 8.63646C182.318 8.63646 182.856 9.1742 182.856 10.2728V22.1491H179.456V8.62327L181.219 8.63646Z" fill="#131131"/>
<path d="M189.806 11.0645H189.448V18.5532C189.448 19.1157 189.778 19.4225 190.438 19.4225H191.485V22.0039C190.294 22.11 189.097 22.1013 187.907 21.9775C186.631 21.8505 186.017 21.0571 186.042 19.5495V4.77832H187.805C188.701 4.77832 189.441 5.60306 189.441 6.49049V8.63482H191.485V9.37378C191.49 9.59637 191.45 9.81778 191.37 10.0247C191.287 10.2316 191.163 10.4197 191.007 10.5777C190.85 10.7356 190.662 10.8602 190.456 10.9439C190.25 11.0276 190.029 11.0686 189.806 11.0645Z" fill="#131131"/>
</g>
</g>
<defs>
<linearGradient id="paint0_linear_5646_7796" x1="18.348" y1="23.9775" x2="45.4733" y2="8.85227" gradientUnits="userSpaceOnUse">
<stop stop-color="#FF8C21"/>
<stop offset="1" stop-color="#FF3D00"/>
</linearGradient>
<linearGradient id="paint1_linear_5646_7796" x1="2.06203" y1="23.9092" x2="29.1881" y2="8.78259" gradientUnits="userSpaceOnUse">
<stop stop-color="#FF8C21"/>
<stop offset="1" stop-color="#FF3D00"/>
</linearGradient>
<clipPath id="clip0_5646_7796">
<rect width="191.505" height="32" fill="white"/>
</clipPath>
</defs>
</svg>
